<?xml version="1.0" encoding="UTF-8" standalone="no"?>
<svg
   id="Layer_1"
   viewBox="0 0 400 400"
   width="2500"
   height="2500"
   version="1.1"
   sodipodi:docname="typescript.svg"
   inkscape:version="1.3.2 (091e20e, 2023-11-25, custom)"
   xmlns:inkscape="http://www.inkscape.org/namespaces/inkscape"
   xmlns:sodipodi="http://sodipodi.sourceforge.net/DTD/sodipodi-0.dtd"
   xmlns="http://www.w3.org/2000/svg"
   xmlns:svg="http://www.w3.org/2000/svg">
  <defs
     id="defs2">
    <clipPath
       clipPathUnits="userSpaceOnUse"
       id="clipPath3">
      <path
         id="path3"
         style="fill:none;stroke:#000000;stroke-width:1.048;stroke-dasharray:none;stroke-opacity:1"
         d="M -21.156875,-2.6446875 V 405.28938 H 410.57843 V -2.6446875 Z M 306.4375,182.1 c 5.86248,0.2 11.7125,0.8 15.1625,1.7 l -0.2,0.2 c 10.19998,2.4 18.00002,7.00002 25,14.3 3.7,4 9.2,11 9.6,12.8 0,0.6 -17.30002,12.30002 -27.8,18.8 -0.4,0.3 -2,-1.4 -3.6,-4 -5.19998,-7.39998 -10.50002,-10.6 -18.8,-11.2 -11.99998,-0.8 -20,5.50002 -20,16 0,3.2 0.6,5 1.8,7.6 2.7,5.49998 7.70002,8.80002 23.2,15.6 28.59997,12.29998 41.00002,20.40002 48.5,32 8.49998,12.99998 10.39998,33.40002 4.7,48.7 -6.39998,16.69998 -22.00002,28 -44.3,31.7 -6.99998,1.2 -23.00002,1 -30.5,-0.3 -15.99998,-3 -31.30002,-11.00002 -40.7,-21.3 -3.7,-4 -10.8,-14.7 -10.4,-15.4 l 3.8,-2.4 15,-8.7 11.3,-6.6 2.6,3.5 c 3.3,5.19998 10.7,12.2 15,14.6 12.99998,6.69998 30.40002,5.79998 39,-2 3.7,-3.4 5.3,-7 5.3,-12 0,-4.6 -0.7,-6.7 -3,-10.2 -3.2,-4.4 -9.60002,-8.00002 -27.6,-16 -20.69998,-8.79998 -29.50002,-14.40002 -37.7,-23 -4.7,-5.19998 -9,-13.30002 -11,-20 -1.5,-5.79998 -2,-20.00002 -0.6,-25.7 4.3,-19.99998 19.40002,-34 41,-38 3.5,-0.7 9.37501,-0.9 15.2375,-0.7 z M 158,184.1 c 38.49997,0 70.2,0.1 70.2,0.4 0.4,0.2 0.4,7.50002 0.4,16.5 v 16 h -52 V 365 H 139.7 V 217 h -52 v -16.3 l 0.3,0.1 v -16.4 z" />
    </clipPath>
  </defs>
  <sodipodi:namedview
     id="namedview2"
     pagecolor="#505050"
     bordercolor="#ffffff"
     borderopacity="1"
     inkscape:showpageshadow="0"
     inkscape:pageopacity="0"
     inkscape:pagecheckerboard="1"
     inkscape:deskcolor="#505050"
     inkscape:zoom="0.242"
     inkscape:cx="1250"
     inkscape:cy="1250"
     inkscape:window-width="1536"
     inkscape:window-height="801"
     inkscape:window-x="-8"
     inkscape:window-y="1072"
     inkscape:window-maximized="1"
     inkscape:current-layer="Layer_1" />
  <style
     id="style1">.st0{fill:#007acc}.st1{fill:#fff}</style>
  <path
     class="st0"
     d="M0 200V0h400v400H0"
     id="path1"
     style="stroke-width:1.048;stroke-dasharray:none"
     clip-path="url(#clipPath3)" />
</svg>
